# xmcd
#
# Track frame offsets:
# 150
# 21153
# 44065
# 68311
# 85018
# 111760
# 151580
# 165279
# 186296
# 202441
# 217487
#
# Disc length: 3208 seconds
#
#
# Revision: 0
# Processed by: cddbd v1.5.1PL0 Copyright (c) Steve Scherf et al.
# Submitted via: FreeRIP 2.90 
#
DISCID=950c860b
DTITLE=Mark Goodwin and MG3 - Can't Help Myself
DYEAR=1900
DGENRE=Blues
TTITLE0=Promise Love
TTITLE1=Borrowed Timed
TTITLE2=That's What Love Will Make You Do
TTITLE3=Can't Help Myself
TTITLE4=After Awhile
TTITLE5=V-8 Ford
TTITLE6=Parchman Farm
TTITLE7=Sugar Sweet
TTITLE8=Three Times A Fool
TTITLE9=Broke Again
TTITLE10=The Gospel (According to Mark)
EXTD=
EXTT0=
EXTT1=
EXTT2=
EXTT3=
EXTT4=
EXTT5=
EXTT6=
EXTT7=
EXTT8=
EXTT9=
EXTT10=
PLAYORDER=
